<svg aria-hidden="true" style="position:absolute;width:0;height:0" xmlns="http://www.w3.org/2000/svg" xmlns:xlink="http://www.w3.org/1999/xlink" overflow="hidden"><defs><symbol id="map" viewBox="0 0 41 32"><path d="M9.239 31.927c.009.006.021.003.03.009A.51.51 0 0 0 9.5 32a.5.5 0 0 0 .132-.018L20.5 29.016l10.868 2.966A.5.5 0 0 0 31.5 32a.492.492 0 0 0 .23-.065c.01-.005.021-.003.03-.009l9-5.5a.501.501 0 0 0 .22-.563l-4.984-17.5a.499.499 0 0 0-.726-.3l-4.962 2.784a.501.501 0 0 0 .491.872l4.409-2.475 4.707 16.526-8.015 4.899-1.904-15.231a.5.5 0 0 0-.993.124l1.907 15.259L21 28.116v-2.73a.5.5 0 0 0-1 0v2.73l-9.911 2.705 1.907-15.259a.5.5 0 1 0-.993-.124L9.1 30.669l-8.015-4.898L5.792 9.246l4.409 2.475a.501.501 0 0 0 .491-.872L5.729 8.064a.496.496 0 0 0-.725.3L.02 25.864a.498.498 0 0 0 .22.563l8.999 5.5zm10.922-8.559a.5.5 0 0 0 .675.003C21.169 23.068 29 15.882 29 8.5 29 3.733 25.267 0 20.5 0S12 3.733 12 8.5c0 7.254 7.828 14.56 8.161 14.868zM20.5 1C24.775 1 28 4.224 28 8.5c0 6.097-5.993 12.337-7.497 13.807C19.002 20.82 13 14.498 13 8.5 13 4.224 16.225 1 20.5 1zM25 8.5C25 6.019 22.981 4 20.5 4S16 6.019 16 8.5s2.019 4.5 4.5 4.5S25 10.981 25 8.5zM20.5 12c-1.93 0-3.5-1.57-3.5-3.5S18.57 5 20.5 5 24 6.57 24 8.5 22.43 12 20.5 12z"/></symbol><symbol id="streetsign" viewBox="0 0 29 32"><path d="M15 31.5V22c0-.276-.133-1-.409-1s-.591.224-.591.5v10c0 .276.314.5.591.5s.409-.224.409-.5zm.091-29.938V.5a.5.5 0 0 0-1 0v1.062a.5.5 0 0 0 1 0zM3.89 3.471L.323 6.269A1 1 0 0 0 0 7c0 .275.118.542.354.758l3.505 2.745c.307.283.854.497 1.273.497H18.96c.573 0 1.04-.463 1.04-1.033V4.033C20 3.463 19.533 3 18.96 3H5.132c-.419 0-.966.214-1.242.471zM19 9.967c0 .015-.018.033-.04.033H5.132c-.17 0-.471-.117-.625-.258L.971 7.029l3.566-2.798c.125-.114.425-.231.595-.231L19 4.033v5.934zm6.141 2.53c-.307-.283-.854-.497-1.273-.497H10.04C9.467 12 9 12.463 9 13.033v5.935C9 19.537 9.467 20 10.04 20h13.828c.419 0 .966-.214 1.243-.471l3.566-2.798A1 1 0 0 0 29 16a1.02 1.02 0 0 0-.354-.758l-3.505-2.745zM10 13h13.868c.17 0 .471.117.625.258l3.536 2.713-3.566 2.798a1.131 1.131 0 0 1-.595.231H10v-6z"/></symbol><symbol id="linegraph" viewBox="0 0 42 32"><path d="M39 0c-1.654 0-3 1.346-3 3 0 .888.396 1.679 1.011 2.229l-8.8 14.031A2.972 2.972 0 0 0 27 19c-.868 0-1.644.376-2.193.967l-9.073-5.745c.168-.374.266-.786.266-1.222 0-1.654-1.346-3-3-3s-3 1.346-3 3c0 .904.41 1.706 1.044 2.256L4.149 26.231A2.972 2.972 0 0 0 3 26c-1.654 0-3 1.346-3 3s1.346 3 3 3 3-1.346 3-3c0-.888-.395-1.678-1.01-2.228l6.904-10.99c.343.138.715.218 1.106.218.859 0 1.629-.367 2.176-.947l9.078 5.748A2.981 2.981 0 0 0 24 22c0 1.654 1.346 3 3 3s3-1.346 3-3c0-.863-.371-1.636-.957-2.184l8.81-14.046c.354.147.741.23 1.147.23 1.654 0 3-1.346 3-3s-1.346-3-3-3zM5 29c0 1.103-.897 2-2 2s-2-.897-2-2 .897-2 2-2 2 .897 2 2zm8-14c-1.103 0-2-.897-2-2s.897-2 2-2 2 .897 2 2-.897 2-2 2zm14 9c-1.103 0-2-.897-2-2s.897-2 2-2 2 .897 2 2-.897 2-2 2zM39 5c-1.103 0-2-.897-2-2s.897-2 2-2 2 .897 2 2-.897 2-2 2z"/></symbol><symbol id="strategy" viewBox="0 0 23 32"><path d="M22 31.5a.5.5 0 0 0-.5-.5h-18a.5.5 0 0 0 0 1h18a.5.5 0 0 0 .5-.5zM1.274 9.354C.856 9.632.222 10.478.823 11.68c.499.997 1.54 2.217 2.647 2.539a1.96 1.96 0 0 0 1.605-.196c1.099-.658 2.397-1.548 2.947-1.93.694.351 1.57.424 2.46.195l.012-.004c-.052 1.651-.611 2.682-3.344 5.22-2.436 2.261-3.881 5.231-3.867 7.946.01 1.781.659 3.31 1.88 4.419A.499.499 0 0 0 5.5 30h14a.5.5 0 0 0 0-1H5.699c-.919-.905-1.407-2.13-1.415-3.555-.013-2.402 1.347-5.165 3.547-7.208C10.746 15.531 11.5 14.249 11.5 12c0-.041-.014-.077-.023-.115.547-.295 1.02-.685 1.343-1.157.405-.59 1.277-2.105.63-3.446a.499.499 0 1 0-.9.436c.291.603.084 1.517-.554 2.445-.368.536-1.026.969-1.761 1.157-.747.191-1.457.107-1.952-.232a.5.5 0 0 0-.571.004c-.018.012-1.777 1.251-3.149 2.074a.967.967 0 0 1-.812.094c-.774-.226-1.625-1.212-2.032-2.026-.329-.658.008-.972.161-1.084 3.447-2.977 5.177-6.07 5.248-6.201a.505.505 0 0 0 .036-.399 19.58 19.58 0 0 1-.54-2.033c1.046.63 2.845 1.51 4.718 1.51 2.604 0 8.658.972 8.658 9.976 0 .049-.009 4.944-1.97 10.327a.5.5 0 1 0 .94.341C20.991 18.123 21.001 13.205 21 13c0-10.183-7.393-10.974-9.658-10.974C8.833 2.026 6.33.123 6.306.103c-.153-.115-.355-.134-.527-.051S5.5.31 5.5.5c0 .981.465 2.568.646 3.147-.418.698-2.066 3.281-4.872 5.707zM17.485 1.54C15.884.461 14.094 0 11.5 0a.5.5 0 0 0 0 1c2.38 0 4.003.409 5.427 1.369C19.241 3.931 22 7.043 22 13c0 1.451 0 3.438-.985 7.379a.5.5 0 0 0 .97.242C23 16.562 23 14.503 23 13c0-6.396-2.999-9.763-5.515-11.46z"/></symbol><symbol id="dial" viewBox="0 0 32 32"><path d="M15.999 11c-2.729 0-4.971 2.22-4.999 4.949A5.007 5.007 0 0 0 15.949 21h.052c2.729 0 4.971-2.22 4.999-4.949.028-2.757-2.192-5.023-5.001-5.051zm.002 9v.5l-.042-.5A4.005 4.005 0 0 1 12 15.959C12.022 13.776 13.816 12 16.041 12A4.005 4.005 0 0 1 20 16.041 4.012 4.012 0 0 1 16.001 20zM0 16a1 1 0 1 0 2 0 1 1 0 0 0-2 0zm30 0a1 1 0 1 0 2 0 1 1 0 0 0-2 0zM15 1a1 1 0 1 0 2 0 1 1 0 0 0-2 0zm0 30a1 1 0 1 0 2 0 1 1 0 0 0-2 0zM4 5a1 1 0 1 0 2 0 1 1 0 0 0-2 0zm22 22a1 1 0 1 0 2 0 1 1 0 0 0-2 0zm0-22a1 1 0 1 0 2 0 1 1 0 0 0-2 0zM4 27a1 1 0 1 0 2 0 1 1 0 0 0-2 0zm20-10.924V8.5a.5.5 0 0 0-.5-.5h-7.501C11.633 8 8.045 11.552 8 15.919c-.021 2.137.79 4.154 2.286 5.681s3.496 2.379 5.633 2.4h.083c4.365 0 7.953-3.552 7.998-7.924zM16.001 23v.5l-.072-.5c-1.87-.019-3.62-.765-4.929-2.101s-2.019-3.101-2-4.971C9.039 12.108 12.178 9 16.076 9H23v7.071c-.039 3.821-3.179 6.93-6.999 6.929z"/></symbol><symbol id="chat" viewBox="0 0 42 32"><path d="M35.652 14.023a.5.5 0 0 0-.303.953C39.257 16.221 41 18.078 41 21c0 2.599-2.371 4.616-3.783 5.588A.5.5 0 0 0 37 27v3.823a7.953 7.953 0 0 1-3.126-2.155.505.505 0 0 0-.468-.159c-.285.055-.576.133-.871.212-.51.137-1.036.279-1.535.279-2.568 0-4.366-.552-6.204-1.903a.5.5 0 0 0-.593.806C26.23 29.393 28.199 30 31 30c.631 0 1.223-.159 1.795-.313.178-.049.355-.097.53-.138 1.869 1.974 3.983 2.423 4.075 2.441a.495.495 0 0 0 .416-.103A.498.498 0 0 0 38 31.5v-4.239c2.582-1.841 4-4.057 4-6.261 0-3.381-2.017-5.598-6.348-6.977zM33 13.5C33 5.804 25.982 0 16.677 0 7.325 0 0 5.931 0 13.502c0 4.539 3.211 7.791 6 9.759v6.636a.502.502 0 0 0 .705.456c.146-.065 3.559-1.616 6.479-4.809 1.265.235 2.696.461 3.994.461C26.641 26.005 33 20.979 33 13.5zM17.177 25.005c-1.31 0-2.799-.251-4.083-.496a.507.507 0 0 0-.468.159C10.576 26.98 8.167 28.449 7 29.082V23a.5.5 0 0 0-.217-.412C4.145 20.773 1 17.725 1 13.502 1 6.491 7.886 1 16.677 1 25.413 1 32 6.374 32 13.5c0 6.882-5.957 11.505-14.823 11.505zM16.5 11.5c-1.103 0-2 .897-2 2s.897 2 2 2 2-.897 2-2-.897-2-2-2zm0 3a1.001 1.001 0 0 1 0-2 1.001 1.001 0 0 1 0 2zm7-3c-1.103 0-2 .897-2 2s.897 2 2 2 2-.897 2-2-.897-2-2-2zm0 3a1.001 1.001 0 0 1 0-2 1.001 1.001 0 0 1 0 2zm-14-2.905c-1.103 0-2 .897-2 2s.897 2 2 2 2-.897 2-2-.897-2-2-2zm0 3a1.001 1.001 0 0 1 0-2 1.001 1.001 0 0 1 0 2z"/></symbol><symbol id="clock" viewBox="0 0 32 32"><path d="M16 32c8.822 0 16-7.178 16-16S24.822 0 16 0 0 7.178 0 16s7.178 16 16 16zm0-31c8.271 0 15 6.729 15 15s-6.729 15-15 15S1 24.271 1 16 7.729 1 16 1zm4.061 20.768a.498.498 0 0 0 .708 0 .5.5 0 0 0 0-.707L16 16.293V9.319a.5.5 0 0 0-1 0V16.5c0 .133.053.26.146.354l4.915 4.914zM3 16a1 1 0 1 0 2 0 1 1 0 0 0-2 0zm24 0a1 1 0 1 0 2 0 1 1 0 0 0-2 0zM15 4a1 1 0 1 0 2 0 1 1 0 0 0-2 0zm0 24a1 1 0 1 0 2 0 1 1 0 0 0-2 0zM7 8a1 1 0 1 0 2 0 1 1 0 0 0-2 0zm16 16a1 1 0 1 0 2 0 1 1 0 0 0-2 0zm1-16a1 1 0 1 0 2 0 1 1 0 0 0-2 0zM7 24a1 1 0 1 0 2 0 1 1 0 0 0-2 0z"/></symbol><symbol id="refresh" viewBox="0 0 32 32"><path d="M26.631 4H31.5a.5.5 0 0 0 0-1h-6a.5.5 0 0 0-.5.5v6a.5.5 0 0 0 1 0V4.783l.611.611c2.833 2.833 4.394 6.6 4.394 10.606s-1.561 7.773-4.394 10.606a15.01 15.01 0 0 1-16.051 3.375.499.499 0 1 0-.362.931 16.007 16.007 0 0 0 17.12-3.6c3.022-3.021 4.687-7.04 4.687-11.313S30.34 7.708 27.318 4.687L26.631 4zM6.5 22a.5.5 0 0 0-.5.5v4.84l-.713-.713C2.454 23.794.893 20.027.893 16.021S2.454 8.247 5.287 5.414a15.04 15.04 0 0 1 15.836-3.456.501.501 0 0 0 .348-.938A16.048 16.048 0 0 0 4.58 4.707C1.558 7.728-.107 11.747-.107 16.02s1.665 8.292 4.687 11.313l.666.667H.5a.5.5 0 0 0 0 1h5.856c.04.01.376-.025.474-.123.004-.004.005-.009.009-.013A.496.496 0 0 0 7 28.5v-6a.5.5 0 0 0-.5-.5z"/></symbol><symbol id="barbell" viewBox="0 0 24 24"><path d="M21.767 9c-.55 0-.767.9-.767 2v2c0 1.1.217 2 .767 2s.767-.9.767-2H24v-2h-1.467c0-1.1-.217-2-.766-2zM18 6c-1 0-1 .9-1 2v3H7V8c0-1.1 0-2-1-2-1.1 0-2 .9-2 2v8c0 1.1.9 2 2 2 1 0 1-.9 1-2v-3h10v3c0 1.1 0 2 1 2 1.1 0 2-.9 2-2V8c0-1.1-.9-2-2-2zM2.233 9c.55 0 .767.9.767 2v2c0 1.1-.217 2-.767 2s-.767-.9-.767-2H0v-2h1.467c0-1.1.217-2 .766-2z"/></symbol><symbol id="tools" viewBox="0 0 32 32"><path d="M28.354 1.354a.5.5 0 0 0-.141-.805 5.984 5.984 0 0 0-6.798 1.191c-1.698 1.709-2.291 4.393-1.499 6.637L8.377 19.916a5.908 5.908 0 0 0-1.996-.336c-1.714 0-3.376.682-4.559 1.872a6.082 6.082 0 0 0-1.281 6.747.498.498 0 0 0 .813.153l3.491-3.509c.23-.232.601-.263.793-.068l1.507 1.577c.219.221.209.562-.022.795l-3.478 3.5a.499.499 0 0 0 .141.804 6.034 6.034 0 0 0 2.591.588c1.572 0 3.065-.632 4.207-1.78 1.698-1.708 2.291-4.392 1.498-6.636l11.539-11.54a5.918 5.918 0 0 0 1.997.336c1.714 0 3.376-.682 4.559-1.872A6.082 6.082 0 0 0 31.458 3.8a.498.498 0 0 0-.813-.153l-3.491 3.509a.569.569 0 0 1-.801-.01l-1.499-1.499a.551.551 0 0 1-.001-.794l3.501-3.499zm-4.208 5l1.499 1.499c.599.602 1.625.605 2.218.009l2.93-2.944a5.091 5.091 0 0 1-1.324 4.926c-.997 1.003-2.399 1.577-3.85 1.577-.683 0-1.33-.128-1.923-.38a.5.5 0 0 0-.549.106l-12 12a.499.499 0 0 0-.107.547c.803 1.91.314 4.375-1.163 5.861a4.956 4.956 0 0 1-4.985 1.258l2.941-2.96c.621-.625.631-1.594.029-2.198l-1.506-1.577c-.581-.585-1.614-.549-2.218.062l-2.93 2.944a5.091 5.091 0 0 1 1.324-4.926c.997-1.003 2.399-1.577 3.85-1.577.683 0 1.33.128 1.923.38a.498.498 0 0 0 .549-.106l12-12a.499.499 0 0 0 .107-.547c-.803-1.91-.314-4.376 1.163-5.862a4.957 4.957 0 0 1 4.982-1.258l-2.96 2.961a1.546 1.546 0 0 0 0 2.205zm5.064 24.293a.595.595 0 0 1-.827-.002l-10.03-10a.501.501 0 0 0-.706.709l10.029 9.998c.3.301.698.467 1.122.467.424 0 .822-.166 1.128-.474l1.429-1.493a1.549 1.549 0 0 0-.001-2.206l-10-10a.5.5 0 0 0-.707.707l9.999 9.999c.229.23.229.564-.007.802l-1.429 1.493zM5.854 3.146l-3-3a.5.5 0 0 0-.707 0l-2 2a.5.5 0 0 0 0 .707l3 3a.502.502 0 0 0 .707.001l.646-.647 7.646 7.646a.5.5 0 1 0 .708-.706L5.207 4.5l.646-.646a.5.5 0 0 0 .001-.708zM3.5 4.793L1.207 2.5 2.5 1.207 4.793 3.5 3.5 4.793z"/></symbol><symbol id="clock" viewBox="0 0 32 32"><path d="M16 32c8.822 0 16-7.178 16-16S24.822 0 16 0 0 7.178 0 16s7.178 16 16 16zm0-31c8.271 0 15 6.729 15 15s-6.729 15-15 15S1 24.271 1 16 7.729 1 16 1zm4.061 20.768a.498.498 0 0 0 .708 0 .5.5 0 0 0 0-.707L16 16.293V9.319a.5.5 0 0 0-1 0V16.5c0 .133.053.26.146.354l4.915 4.914zM3 16a1 1 0 1 0 2 0 1 1 0 0 0-2 0zm24 0a1 1 0 1 0 2 0 1 1 0 0 0-2 0zM15 4a1 1 0 1 0 2 0 1 1 0 0 0-2 0zm0 24a1 1 0 1 0 2 0 1 1 0 0 0-2 0zM7 8a1 1 0 1 0 2 0 1 1 0 0 0-2 0zm16 16a1 1 0 1 0 2 0 1 1 0 0 0-2 0zm1-16a1 1 0 1 0 2 0 1 1 0 0 0-2 0zM7 24a1 1 0 1 0 2 0 1 1 0 0 0-2 0z"/></symbol><symbol id="map" viewBox="0 0 41 32"><path d="M9.239 31.927c.009.006.021.003.03.009A.51.51 0 0 0 9.5 32a.5.5 0 0 0 .132-.018L20.5 29.016l10.868 2.966A.5.5 0 0 0 31.5 32a.492.492 0 0 0 .23-.065c.01-.005.021-.003.03-.009l9-5.5a.501.501 0 0 0 .22-.563l-4.984-17.5a.499.499 0 0 0-.726-.3l-4.962 2.784a.501.501 0 0 0 .491.872l4.409-2.475 4.707 16.526-8.015 4.899-1.904-15.231a.5.5 0 0 0-.993.124l1.907 15.259L21 28.116v-2.73a.5.5 0 0 0-1 0v2.73l-9.911 2.705 1.907-15.259a.5.5 0 1 0-.993-.124L9.1 30.669l-8.015-4.898L5.792 9.246l4.409 2.475a.501.501 0 0 0 .491-.872L5.729 8.064a.496.496 0 0 0-.725.3L.02 25.864a.498.498 0 0 0 .22.563l8.999 5.5zm10.922-8.559a.5.5 0 0 0 .675.003C21.169 23.068 29 15.882 29 8.5 29 3.733 25.267 0 20.5 0S12 3.733 12 8.5c0 7.254 7.828 14.56 8.161 14.868zM20.5 1C24.775 1 28 4.224 28 8.5c0 6.097-5.993 12.337-7.497 13.807C19.002 20.82 13 14.498 13 8.5 13 4.224 16.225 1 20.5 1zM25 8.5C25 6.019 22.981 4 20.5 4S16 6.019 16 8.5s2.019 4.5 4.5 4.5S25 10.981 25 8.5zM20.5 12c-1.93 0-3.5-1.57-3.5-3.5S18.57 5 20.5 5 24 6.57 24 8.5 22.43 12 20.5 12z"/></symbol></defs></svg>